<svg id="app_store" viewBox="0 0 24 24"><path fill-rule="evenodd" d="M5.44 1h13.12A4.45 4.45 0 0 1 23 5.44v13.12A4.44 4.44 0 0 1 18.56 23H5.44A4.44 4.44 0 0 1 1 18.56V5.44A4.44 4.44 0 0 1 5.44 1Zm6.46 5.04.45-.76a1 1 0 0 1 1.74 1l-4.3 7.44h3.11c1 0 1.57 1.18 1.13 2h-9.1a1 1 0 0 1 0-2h2.55l3.27-5.67-1.02-1.77a1 1 0 0 1 1.74-1l.43.76ZM7.08 18.42l.97-1.67c-.52-.63-1.19-.82-1.99-.57l-.72 1.24a1 1 0 1 0 1.74 1Zm11.85-4.7h-2.59l-2.95-5.1c-.59.5-1.19 1.94-.35 3.4l3.7 6.4a1 1 0 0 0 1.74-1l-.98-1.7h1.43a1 1 0 0 0 0-2Z"></path></svg>