<svg width="24" height="19" viewBox="0 0 24 19" fill="none" xmlns="http://www.w3.org/2000/svg">
    <path fill-rule="evenodd" clip-rule="evenodd"
        d="M24 3.59131C24 3.97831 23.8452 4.3653 23.5665 4.64394L10.2503 17.9566C9.97161 18.2352 9.58452 18.39 9.19742 18.39C8.81032 18.39 8.42323 18.2352 8.14452 17.9566L0.433548 10.2476C0.154839 9.96899 0 9.582 0 9.195C0 8.808 0.154839 8.42101 0.433548 8.14237L2.53935 6.03712C2.81806 5.75848 3.20516 5.60369 3.59226 5.60369C3.97935 5.60369 4.36645 5.75848 4.64516 6.03712L9.19742 10.6037L19.3548 0.433434C19.6335 0.154798 20.0206 0 20.4077 0C20.7948 0 21.1819 0.154798 21.4606 0.433434L23.5665 2.53869C23.8452 2.81732 24 3.20432 24 3.59131Z"
        fill="#000" />
</svg>