<svg width="24" height="17" viewBox="0 0 24 17" fill="none" xmlns="http://www.w3.org/2000/svg">
    <path fill-rule="evenodd" clip-rule="evenodd"
        d="M13.9912 9.75586V9.70312L13.6747 5.48438C13.6615 5.24707 13.4505 5.0625 13.2264 5.0625H10.7736C10.5494 5.0625 10.3385 5.24707 10.3253 5.48438L10.0088 9.70312V9.75586C9.9956 9.9668 10.1934 10.125 10.3912 10.125H13.6088C13.8066 10.125 14.0044 9.9668 13.9912 9.75586ZM24 15.9126C24 16.2949 23.8945 16.875 23.3934 16.875H14.1099C14.3341 16.875 14.5187 16.6904 14.5055 16.4531L14.2418 13.0781C14.2286 12.8408 14.0176 12.6563 13.7934 12.6563H10.2066C9.98242 12.6563 9.77143 12.8408 9.75824 13.0781L9.49451 16.4531C9.48132 16.6904 9.66593 16.875 9.89011 16.875H0.606593C0.105494 16.875 0 16.2949 0 15.9126C0 15.3853 0.145055 14.8579 0.342857 14.3833L5.84176 0.619629C5.97363 0.290039 6.32967 0 6.68571 0H11.156C10.9319 0 10.7209 0.18457 10.7077 0.421875L10.5099 2.95312C10.4967 3.19043 10.6681 3.375 10.9055 3.375H13.0945C13.3319 3.375 13.5033 3.19043 13.4901 2.95312L13.2923 0.421875C13.2791 0.18457 13.0681 0 12.844 0H17.3143C17.6703 0 18.0264 0.290039 18.1582 0.619629L23.6571 14.3833C23.8549 14.8579 24 15.3853 24 15.9126Z"
        fill="#000" />
</svg>