<svg width="24" height="24" viewBox="0 0 24 24" fill="none" xmlns="http://www.w3.org/2000/svg">
  <path fill-rule="evenodd" clip-rule="evenodd"
    d="M12 0C18.625 0 24 5.375 24 12C24 18.625 18.625 24 12 24C5.375 24 0 18.625 0 12C0 5.375 5.375 0 12 0ZM14 19.4844V16.5156C14 16.2344 13.7812 16 13.5156 16H10.5156C10.2344 16 10 16.2344 10 16.5156V19.4844C10 19.7656 10.2344 20 10.5156 20H13.5156C13.7812 20 14 19.7656 14 19.4844ZM13.9688 14.1094L14.25 4.40625C14.25 4.29688 14.2031 4.1875 14.0938 4.125C14 4.04688 13.8594 4 13.7188 4H10.2812C10.1406 4 10 4.04688 9.90625 4.125C9.79688 4.1875 9.75 4.29688 9.75 4.40625L10.0156 14.1094C10.0156 14.3281 10.25 14.5 10.5469 14.5H13.4375C13.7188 14.5 13.9531 14.3281 13.9688 14.1094Z"
    fill="#000" />
</svg>