<svg width="24" height="21" viewBox="0 0 24 21" fill="none" xmlns="http://www.w3.org/2000/svg">
    <path fill-rule="evenodd" clip-rule="evenodd"
        d="M13.7145 17.1049V14.7413C13.7145 14.5174 13.527 14.3308 13.2859 14.3308H10.7141C10.473 14.3308 10.2855 14.5174 10.2855 14.7413V17.1049C10.2855 17.3288 10.473 17.5154 10.7141 17.5154H13.2859C13.527 17.5154 13.7145 17.3288 13.7145 17.1049ZM13.6877 12.4523L13.9288 6.74243C13.9288 6.66779 13.8886 6.56827 13.7949 6.50607C13.7145 6.44387 13.5939 6.36923 13.4734 6.36923H10.5266C10.4061 6.36923 10.2855 6.44387 10.2051 6.50607C10.1114 6.56827 10.0712 6.69267 10.0712 6.76731L10.2989 12.4523C10.2989 12.6141 10.4998 12.7385 10.7543 12.7385H13.2323C13.4734 12.7385 13.6743 12.6141 13.6877 12.4523ZM13.5002 0.833474L23.7871 18.3489C24.0818 18.834 24.0684 19.4311 23.7603 19.9163C23.4523 20.4014 22.8897 20.7 22.2869 20.7H1.71307C1.11032 20.7 0.547749 20.4014 0.239677 19.9163C-0.0683955 19.4311 -0.0817899 18.834 0.212888 18.3489L10.4998 0.833474C10.7945 0.323437 11.3705 0 12 0C12.6295 0 13.2055 0.323437 13.5002 0.833474Z"
        fill="#000" />
</svg>