<svg width="24" height="24" viewBox="0 0 24 24" fill="none" xmlns="http://www.w3.org/2000/svg">
    <path fill-rule="evenodd" clip-rule="evenodd"
        d="M16 19.5V17C16 16.7188 15.7812 16.5 15.5 16.5H14V8.5C14 8.21875 13.7812 8 13.5 8H8.5C8.21875 8 8 8.21875 8 8.5V11C8 11.2812 8.21875 11.5 8.5 11.5H10V16.5H8.5C8.21875 16.5 8 16.7188 8 17V19.5C8 19.7812 8.21875 20 8.5 20H15.5C15.7812 20 16 19.7812 16 19.5ZM14 5.5V3C14 2.71875 13.7812 2.5 13.5 2.5H10.5C10.2188 2.5 10 2.71875 10 3V5.5C10 5.78125 10.2188 6 10.5 6H13.5C13.7812 6 14 5.78125 14 5.5ZM24 12C24 18.625 18.625 24 12 24C5.375 24 0 18.625 0 12C0 5.375 5.375 0 12 0C18.625 0 24 5.375 24 12Z"
        fill="#000" />
</svg>