<svg width="24" height="21" viewBox="0 0 24 21" fill="none" xmlns="http://www.w3.org/2000/svg">
    <path
        d="M1.42593 9.38892L0.299062 7.41205C-0.147798 6.62519 -0.108941 5.63918 0.517635 4.98346C2.54793 2.85602 6.59396 0 12 0C17.406 0 21.4521 2.85602 23.4824 4.98346C24.1089 5.63918 24.1478 6.62519 23.7009 7.41205L22.5789 9.38892C22.2146 10.0301 21.4472 10.3264 20.7429 10.0981L16.8037 8.80606C16.1675 8.5972 15.7352 7.99977 15.7352 7.32948V4.66289C13.326 3.78374 10.6837 3.78374 8.27455 4.66289V7.32462C8.27455 7.99491 7.84226 8.59235 7.20597 8.8012L3.26194 10.0932C2.55765 10.3215 1.79022 10.0252 1.42593 9.38407V9.38892ZM1.11992 13.9887C1.11992 13.5612 1.46964 13.2115 1.89707 13.2115H3.45137C3.8788 13.2115 4.22852 13.5612 4.22852 13.9887V15.543C4.22852 15.9704 3.8788 16.3201 3.45137 16.3201H1.89707C1.46964 16.3201 1.11992 15.9704 1.11992 15.543V13.9887ZM1.11992 18.6516C1.11992 18.2241 1.46964 17.8744 1.89707 17.8744H3.45137C3.8788 17.8744 4.22852 18.2241 4.22852 18.6516V20.2059C4.22852 20.6333 3.8788 20.983 3.45137 20.983H1.89707C1.46964 20.983 1.11992 20.6333 1.11992 20.2059V18.6516ZM6.55996 13.2115H8.11426C8.54169 13.2115 8.89141 13.5612 8.89141 13.9887V15.543C8.89141 15.9704 8.54169 16.3201 8.11426 16.3201H6.55996C6.13253 16.3201 5.78281 15.9704 5.78281 15.543V13.9887C5.78281 13.5612 6.13253 13.2115 6.55996 13.2115ZM10.4457 13.9887C10.4457 13.5612 10.7954 13.2115 11.2229 13.2115H12.7771C13.2046 13.2115 13.5543 13.5612 13.5543 13.9887V15.543C13.5543 15.9704 13.2046 16.3201 12.7771 16.3201H11.2229C10.7954 16.3201 10.4457 15.9704 10.4457 15.543V13.9887ZM15.8857 13.2115H17.44C17.8675 13.2115 18.2172 13.5612 18.2172 13.9887V15.543C18.2172 15.9704 17.8675 16.3201 17.44 16.3201H15.8857C15.4583 16.3201 15.1086 15.9704 15.1086 15.543V13.9887C15.1086 13.5612 15.4583 13.2115 15.8857 13.2115ZM19.7715 13.9887C19.7715 13.5612 20.1212 13.2115 20.5486 13.2115H22.1029C22.5304 13.2115 22.8801 13.5612 22.8801 13.9887V15.543C22.8801 15.9704 22.5304 16.3201 22.1029 16.3201H20.5486C20.1212 16.3201 19.7715 15.9704 19.7715 15.543V13.9887ZM20.5486 17.8744H22.1029C22.5304 17.8744 22.8801 18.2241 22.8801 18.6516V20.2059C22.8801 20.6333 22.5304 20.983 22.1029 20.983H20.5486C20.1212 20.983 19.7715 20.6333 19.7715 20.2059V18.6516C19.7715 18.2241 20.1212 17.8744 20.5486 17.8744ZM5.78281 18.6516C5.78281 18.2241 6.13253 17.8744 6.55996 17.8744H17.44C17.8675 17.8744 18.2172 18.2241 18.2172 18.6516V20.2059C18.2172 20.6333 17.8675 20.983 17.44 20.983H6.55996C6.13253 20.983 5.78281 20.6333 5.78281 20.2059V18.6516Z"
        fill="#000" />
</svg>