<svg width="50" height="50" viewBox="0 0 50 50" fill="none" xmlns="http://www.w3.org/2000/svg">
  <path
    d="M10.6972 45.5044C7.47499 43.2567 4.82784 40.2813 2.97043 36.8194C1.11303 33.3575 0.0976753 29.5066 0.00670322 25.5789C-0.0842688 21.6512 0.751705 17.7574 2.44683 14.2132C4.14196 10.669 6.64852 7.57422 9.76324 5.17978L14.0178 10.7142C11.7728 12.44 9.96618 14.6707 8.74439 17.2252C7.52259 19.7798 6.92005 22.5863 6.98562 25.4172C7.05119 28.2482 7.78303 31.0238 9.12178 33.5191C10.4605 36.0143 12.3685 38.1589 14.691 39.7789L10.6972 45.5044Z"
    fill="#005EA2" />
  <path
    d="M40.4663 5.35838C43.552 7.78811 46.0218 10.9107 47.6756 14.473C49.3293 18.0353 50.1206 21.9371 49.9851 25.8622C49.8497 29.7873 48.7914 33.6253 46.8959 37.0652C45.0005 40.505 42.3213 43.4498 39.0755 45.6611L35.1452 39.8919C37.4847 38.2981 39.4157 36.1755 40.7819 33.6962C42.1481 31.2169 42.9109 28.4506 43.0085 25.6215C43.1061 22.7923 42.5358 19.98 41.3438 17.4124C40.1518 14.8448 38.3717 12.5942 36.1476 10.8429L40.4663 5.35838Z"
    fill="#005EA2" />
</svg>
  
