<svg width="21" height="24" viewBox="0 0 21 24" fill="none" xmlns="http://www.w3.org/2000/svg">
    <path
        d="M0.5625 9H20.4375C20.7469 9 21 9.25313 21 9.5625V21.75C21 22.9922 19.9922 24 18.75 24H2.25C1.00781 24 0 22.9922 0 21.75V9.5625C0 9.25313 0.253125 9 0.5625 9ZM21 6.9375V5.25C21 4.00781 19.9922 3 18.75 3H16.5V0.5625C16.5 0.253125 16.2469 0 15.9375 0H14.0625C13.7531 0 13.5 0.253125 13.5 0.5625V3H7.5V0.5625C7.5 0.253125 7.24687 0 6.9375 0H5.0625C4.75313 0 4.5 0.253125 4.5 0.5625V3H2.25C1.00781 3 0 4.00781 0 5.25V6.9375C0 7.24687 0.253125 7.5 0.5625 7.5H20.4375C20.7469 7.5 21 7.24687 21 6.9375Z"
        fill="#000" />
</svg>