<svg width="22" height="24" viewBox="0 0 22 24" fill="none" xmlns="http://www.w3.org/2000/svg">
    <path fill-rule="evenodd" clip-rule="evenodd"
        d="M21.99 19.6806C21.99 22.1309 20.1208 24 17.6705 24C16.2883 24 14.9532 23.4031 13.9794 22.4293L1.77491 10.2408C0.6597 9.10995 0 7.57068 0 5.98429C0 2.65445 2.62309 0 5.95301 0C7.55514 0 9.09444 0.643979 10.2411 1.77487L19.7439 11.2932C19.8381 11.3874 19.9009 11.5131 19.9009 11.6387C19.9009 11.9686 19.0213 12.8482 18.6915 12.8482C18.5501 12.8482 18.4245 12.7853 18.3302 12.6911L8.81171 3.15707C8.05776 2.41885 7.0368 1.94764 5.96871 1.94764C3.7383 1.94764 2.01051 3.75393 2.01051 5.96859C2.01051 7.03665 2.45031 8.05759 3.20426 8.81152L15.393 21.0157C15.9899 21.6126 16.8223 22.0052 17.6705 22.0052C19.0056 22.0052 19.9952 21.0157 19.9952 19.6806C19.9952 18.8168 19.6025 18 19.0056 17.4031L9.87979 8.27749C9.62848 8.04188 9.28292 7.90052 8.93736 7.90052C8.34049 7.90052 7.88499 8.34031 7.88499 8.95288C7.88499 9.29843 8.04206 9.62827 8.27766 9.87958L14.7176 16.3194C14.8118 16.4136 14.8747 16.5393 14.8747 16.6649C14.8747 16.9948 13.9794 17.8901 13.6495 17.8901C13.5238 17.8901 13.3982 17.8272 13.3039 17.733L6.86402 11.2932C6.23574 10.6806 5.87447 9.81675 5.87447 8.95288C5.87447 7.22513 7.22529 5.87435 8.95307 5.87435C9.83267 5.87435 10.6809 6.2356 11.2934 6.86387L20.4193 15.9895C21.4088 16.9634 21.99 18.2984 21.99 19.6806Z"
        fill="#000" />
</svg>