<svg id="flag-uz" viewBox="0 0 640 480"><path fill="#1eb53a" d="M0 320h640v160H0z"></path><path fill="#0099b5" d="M0 0h640v160H0z"></path><path fill="#ce1126" d="M0 153.6h640v172.8H0z"></path><path fill="#fff" d="M0 163.2h640v153.6H0z"></path><circle cx="134.4" cy="76.8" r="57.6" fill="#fff"></circle><circle cx="153.6" cy="76.8" r="57.6" fill="#0099b5"></circle><g fill="#fff" transform="translate(261.1 122.9)scale(1.92)"><g id="flag-uz-uz-e"><g id="flag-uz-uz-d"><g id="flag-uz-uz-c"><g id="flag-uz-uz-b"><path id="flag-uz-uz-a" d="M0-6-1.9-.3 1 .7"></path><use xlink:href="#flag-uz-flag-uz-uz-a" width="100%" height="100%" transform="scale(-1 1)"></use></g><use xlink:href="#flag-uz-flag-uz-uz-b" width="100%" height="100%" transform="rotate(72)"></use></g><use xlink:href="#flag-uz-flag-uz-uz-b" width="100%" height="100%" transform="rotate(-72)"></use><use xlink:href="#flag-uz-flag-uz-uz-c" width="100%" height="100%" transform="rotate(144)"></use></g><use xlink:href="#flag-uz-flag-uz-uz-d" width="100%" height="100%" y="-24"></use><use xlink:href="#flag-uz-flag-uz-uz-d" width="100%" height="100%" y="-48"></use></g><use xlink:href="#flag-uz-flag-uz-uz-e" width="100%" height="100%" x="24"></use><use xlink:href="#flag-uz-flag-uz-uz-e" width="100%" height="100%" x="48"></use><use xlink:href="#flag-uz-flag-uz-uz-d" width="100%" height="100%" x="-48"></use><use xlink:href="#flag-uz-flag-uz-uz-d" width="100%" height="100%" x="-24"></use><use xlink:href="#flag-uz-flag-uz-uz-d" width="100%" height="100%" x="-24" y="-24"></use></g></svg>