<svg xmlns="http://www.w3.org/2000/svg" id="flag-icons-us" viewBox="0 0 640 480">
  <path fill="#bd3d44" d="M0 0h640v480H0" />
  <path stroke="#fff" stroke-width="37" d="M0 55.3h640M0 129h640M0 203h640M0 277h640M0 351h640M0 425h640" />
  <path fill="#192f5d" d="M0 0h364.8v258.5H0" />
  <g fill="#fff">
    <!-- Stars -->
    <!-- Row 1: 6 stars -->
    <path d="M30,11 l9,27 -23-17h28 l-23,17z" />
    <path d="M91,11 l9,27 -23-17h28 l-23,17z" />
    <path d="M152,11 l9,27 -23-17h28 l-23,17z" />
    <path d="M213,11 l9,27 -23-17h28 l-23,17z" />
    <path d="M274,11 l9,27 -23-17h28 l-23,17z" />
    <path d="M334,11 l9,27 -23-17h28 l-23,17z" />

    <!-- Row 2: 5 stars -->
    <path d="M61,37 l9,27 -23-17h28 l-23,17z" />
    <path d="M122,37 l9,27 -23-17h28 l-23,17z" />
    <path d="M183,37 l9,27 -23-17h28 l-23,17z" />
    <path d="M243,37 l9,27 -23-17h28 l-23,17z" />
    <path d="M304,37 l9,27 -23-17h28 l-23,17z" />

    <!-- Row 3: 6 stars -->
    <path d="M30,63 l9,27 -23-17h28 l-23,17z" />
    <path d="M91,63 l9,27 -23-17h28 l-23,17z" />
    <path d="M152,63 l9,27 -23-17h28 l-23,17z" />
    <path d="M213,63 l9,27 -23-17h28 l-23,17z" />
    <path d="M274,63 l9,27 -23-17h28 l-23,17z" />
    <path d="M334,63 l9,27 -23-17h28 l-23,17z" />

    <!-- Row 4: 5 stars -->
    <path d="M61,89 l9,27 -23-17h28 l-23,17z" />
    <path d="M122,89 l9,27 -23-17h28 l-23,17z" />
    <path d="M183,89 l9,27 -23-17h28 l-23,17z" />
    <path d="M243,89 l9,27 -23-17h28 l-23,17z" />
    <path d="M304,89 l9,27 -23-17h28 l-23,17z" />

    <!-- Row 5: 6 stars -->
    <path d="M30,115 l9,27 -23-17h28 l-23,17z" />
    <path d="M91,115 l9,27 -23-17h28 l-23,17z" />
    <path d="M152,115 l9,27 -23-17h28 l-23,17z" />
    <path d="M213,115 l9,27 -23-17h28 l-23,17z" />
    <path d="M274,115 l9,27 -23-17h28 l-23,17z" />
    <path d="M334,115 l9,27 -23-17h28 l-23,17z" />

    <!-- Row 6: 5 stars -->
    <path d="M61,141 l9,27 -23-17h28 l-23,17z" />
    <path d="M122,141 l9,27 -23-17h28 l-23,17z" />
    <path d="M183,141 l9,27 -23-17h28 l-23,17z" />
    <path d="M243,141 l9,27 -23-17h28 l-23,17z" />
    <path d="M304,141 l9,27 -23-17h28 l-23,17z" />

    <!-- Row 7: 6 stars -->
    <path d="M30,166 l9,27 -23-17h28 l-23,17z" />
    <path d="M91,166 l9,27 -23-17h28 l-23,17z" />
    <path d="M152,166 l9,27 -23-17h28 l-23,17z" />
    <path d="M213,166 l9,27 -23-17h28 l-23,17z" />
    <path d="M274,166 l9,27 -23-17h28 l-23,17z" />
    <path d="M334,166 l9,27 -23-17h28 l-23,17z" />

    <!-- Row 8: 5 stars -->
    <path d="M61,192 l9,27 -23-17h28 l-23,17z" />
    <path d="M122,192 l9,27 -23-17h28 l-23,17z" />
    <path d="M183,192 l9,27 -23-17h28 l-23,17z" />
    <path d="M243,192 l9,27 -23-17h28 l-23,17z" />
    <path d="M304,192 l9,27 -23-17h28 l-23,17z" />

    <!-- Row 9: 6 stars -->
    <path d="M30,218 l9,27 -23-17h28 l-23,17z" />
    <path d="M91,218 l9,27 -23-17h28 l-23,17z" />
    <path d="M152,218 l9,27 -23-17h28 l-23,17z" />
    <path d="M213,218 l9,27 -23-17h28 l-23,17z" />
    <path d="M274,218 l9,27 -23-17h28 l-23,17z" />
    <path d="M334,218 l9,27 -23-17h28 l-23,17z" />
  </g>
</svg>