<svg width="15" height="24" viewBox="0 0 15 24" fill="none" xmlns="http://www.w3.org/2000/svg">
    <path
        d="M12.75 0H2.25C1.00781 0 0 1.00781 0 2.25V21.75C0 22.9922 1.00781 24 2.25 24H12.75C13.9922 24 15 22.9922 15 21.75V2.25C15 1.00781 13.9922 0 12.75 0ZM7.5 22.5C6.67031 22.5 6 21.8297 6 21C6 20.1703 6.67031 19.5 7.5 19.5C8.32969 19.5 9 20.1703 9 21C9 21.8297 8.32969 22.5 7.5 22.5ZM12.75 17.4375C12.75 17.7469 12.4969 18 12.1875 18H2.8125C2.50312 18 2.25 17.7469 2.25 17.4375V2.8125C2.25 2.50312 2.50312 2.25 2.8125 2.25H12.1875C12.4969 2.25 12.75 2.50312 12.75 2.8125V17.4375Z"
        fill="#000" />
</svg>