<svg width="201" height="274" viewBox="0 0 201 274" fill="none" xmlns="http://www.w3.org/2000/svg">
<path d="M81.8261 271.906C88.7285 271.906 94.4889 266.31 94.4889 259.404C94.4889 252.586 88.7284 247.235 81.8224 247.235H62.572C60.2737 247.235 58.3743 245.6 58.3743 243.287C58.3743 240.977 60.5079 239.012 62.8172 239.012H89.6214L93.9253 230.788H62.8172C55.9149 230.788 50.1508 236.468 50.1508 243.287C50.1508 250.108 55.9149 255.459 62.8209 255.459H82.0713C84.366 255.459 86.2654 257.099 86.2654 259.404C86.2654 261.717 84.1354 263.682 81.8224 263.682H55.0183L50.718 271.906H81.8261Z" fill="white"/>
<path d="M114.2 247.235H133.455C140.357 247.235 146.117 252.502 146.117 259.404C146.117 266.307 140.357 271.906 133.455 271.906H102.346L106.65 263.686H133.455C135.764 263.686 137.898 261.703 137.898 259.404C137.898 257.106 135.998 255.459 133.7 255.459H114.446C107.543 255.459 101.783 250.193 101.783 243.287C101.783 236.384 107.543 230.788 114.449 230.788H145.557L141.25 239.012H114.449C112.136 239.012 110.006 240.992 110.006 243.287C110.006 245.585 111.906 247.235 114.2 247.235Z" fill="white"/>
<path d="M157.104 230.814H196.055V230.832L200.428 239.056H165.331V247.279H191.319L187.4 255.503H165.328V272.997H157.104V230.814Z" fill="white"/>
<path d="M41.327 230.788V252.198C41.327 264.865 33.8318 273.406 20.7664 273.406C7.70104 273.406 0.125305 264.934 0.125305 252.118V230.788H8.33418V251.539C8.33418 259.971 12.5832 265.304 20.6823 265.304C28.785 265.304 33.1145 260.052 33.1145 251.624V230.788H41.327Z" fill="white"/>
<path d="M86.4899 143.978L102.131 153.098L55.1033 181.463L86.4899 143.978Z" fill="url(#paint0_linear_1208_453)"/>
<path d="M99.517 0.843597L28.4403 213.799L99.5214 170.985L170.456 213.608L99.517 0.843597Z" fill="url(#paint1_radial_1208_453)"/>
<path d="M99.4463 15.139L36.637 203.535L99.5964 165.812L162.279 203.526L99.4463 15.139ZM103.716 49.4698L150.23 188.682L103.202 160.317L118.842 151.198L103.716 49.4698ZM95.3975 49.7421L80.2709 151.47L95.9117 160.589L48.8843 188.955L95.3975 49.7421Z" fill="black"/>
<path d="M118.842 151.198L103.202 160.317L150.229 188.682L118.842 151.198Z" fill="url(#paint2_linear_1208_453)"/>
<path d="M96.4097 134.77L99.4455 124.749L102.521 134.77L112.189 137.791L102.486 140.866L99.517 150.887L96.4419 140.866L86.4213 137.897L96.4097 134.77Z" fill="#EDF1FA"/>
<path d="M80.2709 151.47L95.9118 160.589L48.8843 188.955L80.2709 151.47Z" fill="url(#paint3_linear_1208_453)"/>
<path d="M95.3976 49.7421L80.2709 151.47L48.8843 188.955L95.3976 49.7421Z" fill="url(#paint4_linear_1208_453)"/>
<path d="M118.842 151.198L103.202 160.317L150.229 188.682L118.842 151.198Z" fill="url(#paint5_linear_1208_453)"/>
<path d="M103.716 49.4698L118.842 151.198L150.229 188.682L103.716 49.4698Z" fill="url(#paint6_linear_1208_453)"/>
<path d="M96.442 140.866C98.4567 140.866 100.471 140.866 102.486 140.866C101.496 144.207 100.507 147.547 99.5171 150.887C98.492 147.547 97.467 144.207 96.442 140.866Z" fill="url(#paint7_linear_1208_453)"/>
<path d="M102.486 140.866L102.521 134.77L112.189 137.791L102.486 140.866Z" fill="url(#paint8_linear_1208_453)"/>
<path d="M102.521 134.77C100.506 134.77 98.4912 134.77 96.4764 134.77C97.4661 131.429 98.4558 128.089 99.4455 124.749C100.471 128.089 101.496 131.429 102.521 134.77Z" fill="url(#paint9_linear_1208_453)"/>
<path d="M96.4419 134.822C96.4419 136.837 96.4419 138.852 96.4419 140.866C93.1017 139.877 89.7615 138.887 86.4213 137.897C89.7615 136.872 93.1017 135.847 96.4419 134.822Z" fill="url(#paint10_linear_1208_453)"/>
<defs>
<linearGradient id="paint0_linear_1208_453" x1="77.479" y1="158.036" x2="85.8892" y2="165.198" gradientUnits="userSpaceOnUse">
<stop stop-color="#535F6A"/>
<stop offset="1" stop-color="#535F6A" stop-opacity="0"/>
</linearGradient>
<radialGradient id="paint1_radial_1208_453" cx="0" cy="0" r="1" gradientUnits="userSpaceOnUse" gradientTransform="translate(99.7433 115.034) rotate(90.88) scale(115.239 191.221)">
<stop stop-color="#FEFEFE"/>
<stop offset="1" stop-color="#98A1AF"/>
</radialGradient>
<linearGradient id="paint2_linear_1208_453" x1="127.853" y1="165.255" x2="119.443" y2="172.417" gradientUnits="userSpaceOnUse">
<stop stop-color="#535F6A"/>
<stop offset="1" stop-color="#535F6A" stop-opacity="0"/>
</linearGradient>
<linearGradient id="paint3_linear_1208_453" x1="70.8974" y1="165.245" x2="81.0379" y2="173.622" gradientUnits="userSpaceOnUse">
<stop stop-color="#54606B"/>
<stop offset="1" stop-color="#EDF1FA"/>
</linearGradient>
<linearGradient id="paint4_linear_1208_453" x1="95.3976" y1="49.7421" x2="65.1059" y2="160.235" gradientUnits="userSpaceOnUse">
<stop stop-color="#98A1AF"/>
<stop offset="1" stop-color="#EDF1FA"/>
</linearGradient>
<linearGradient id="paint5_linear_1208_453" x1="128.216" y1="164.972" x2="118.075" y2="173.349" gradientUnits="userSpaceOnUse">
<stop stop-color="#54606B"/>
<stop offset="1" stop-color="#EDF1FA"/>
</linearGradient>
<linearGradient id="paint6_linear_1208_453" x1="103.716" y1="49.4698" x2="134.007" y2="159.963" gradientUnits="userSpaceOnUse">
<stop stop-color="#98A1AF"/>
<stop offset="1" stop-color="#EDF1FA"/>
</linearGradient>
<linearGradient id="paint7_linear_1208_453" x1="99.5171" y1="145.561" x2="99.5171" y2="150.887" gradientUnits="userSpaceOnUse">
<stop stop-color="#EDF1FA"/>
<stop offset="1" stop-color="#9AA2B1"/>
</linearGradient>
<linearGradient id="paint8_linear_1208_453" x1="106.863" y1="137.791" x2="112.189" y2="137.791" gradientUnits="userSpaceOnUse">
<stop stop-color="#EDF1FA"/>
<stop offset="1" stop-color="#9AA2B1"/>
</linearGradient>
<linearGradient id="paint9_linear_1208_453" x1="99.4455" y1="130.075" x2="99.4455" y2="124.749" gradientUnits="userSpaceOnUse">
<stop stop-color="#EDF1FA"/>
<stop offset="1" stop-color="#9AA2B1"/>
</linearGradient>
<linearGradient id="paint10_linear_1208_453" x1="91.7473" y1="137.897" x2="86.4213" y2="137.897" gradientUnits="userSpaceOnUse">
<stop stop-color="#EDF1FA"/>
<stop offset="1" stop-color="#9AA2B1"/>
</linearGradient>
</defs>
</svg>
